<?xml version="1.0" encoding="UTF-8"?>
<svg xmlns="http://www.w3.org/2000/svg" version="1.1" viewBox="0 0 111.96 41.43">
  <defs>
    <style>
      .cls-1 {
        fill: #04adaa;
      }

      .cls-2 {
        fill: #282963;
      }
    </style>
  </defs>
  <!-- Generator: Adobe Illustrator 28.7.1, SVG Export Plug-In . SVG Version: 1.2.0 Build 142)  -->
  <g>
    <g id="Layer_1">
      <g>
        <path class="cls-1" d="M21.61,38.66c-.48,0-.86-.38-.86-.85s.39-.85.86-.85.86.38.86.85-.39.85-.86.85"/>
        <path class="cls-1" d="M21.61,36.45c-.43,0-.78-.34-.78-.76s.35-.77.78-.77.77.34.77.77-.35.76-.77.76"/>
        <path class="cls-1" d="M21.61,34.24c-.38,0-.69-.3-.69-.68s.31-.68.69-.68.69.3.69.68-.31.68-.69.68"/>
        <path class="cls-1" d="M21.61,32.03c-.33,0-.6-.27-.6-.59s.27-.59.6-.59.6.27.6.59-.27.59-.6.59"/>
        <path class="cls-1" d="M21.61,29.83c-.29,0-.52-.23-.52-.51s.23-.51.52-.51.52.23.52.51-.23.51-.52.51"/>
        <path class="cls-1" d="M21.61,12.84c-.29,0-.52-.23-.52-.51s.23-.51.52-.51.52.23.52.51-.23.51-.52.51"/>
        <path class="cls-1" d="M21.61,10.8c-.33,0-.6-.27-.6-.59s.27-.59.6-.59.6.27.6.59-.27.59-.6.59"/>
        <path class="cls-1" d="M21.61,8.76c-.38,0-.69-.3-.69-.68s.31-.68.69-.68.69.3.69.68-.31.68-.69.68"/>
        <path class="cls-1" d="M21.61,6.73c-.43,0-.78-.34-.78-.76s.35-.76.78-.76.77.34.77.76-.35.76-.77.76"/>
        <path class="cls-1" d="M21.61,4.69c-.48,0-.86-.38-.86-.85s.39-.85.86-.85.86.38.86.85-.39.85-.86.85"/>
        <path class="cls-1" d="M27.5,37.63c-.48,0-.86-.38-.86-.85s.39-.85.86-.85.86.38.86.85-.39.85-.86.85"/>
        <path class="cls-1" d="M26.77,35.55c-.43,0-.78-.34-.78-.76s.35-.77.78-.77.78.34.78.77-.35.76-.78.76"/>
        <path class="cls-1" d="M26.03,33.47c-.38,0-.69-.3-.69-.68s.31-.68.69-.68.69.3.69.68-.31.68-.69.68"/>
        <path class="cls-1" d="M25.29,31.39c-.33,0-.6-.27-.6-.59s.27-.59.6-.59.6.27.6.59-.27.59-.6.59"/>
        <path class="cls-1" d="M24.56,29.31c-.29,0-.52-.23-.52-.51s.23-.51.52-.51.52.23.52.51-.23.51-.52.51"/>
        <path class="cls-1" d="M18.66,13.35c-.29,0-.52-.23-.52-.51s.23-.51.52-.51.52.23.52.51-.23.51-.52.51"/>
        <path class="cls-1" d="M17.93,11.44c-.33,0-.6-.27-.6-.59s.27-.59.6-.59.6.27.6.59-.27.59-.6.59"/>
        <path class="cls-1" d="M17.19,9.53c-.38,0-.69-.3-.69-.68s.31-.68.69-.68.69.3.69.68-.31.68-.69.68"/>
        <path class="cls-1" d="M16.45,7.62c-.43,0-.78-.34-.78-.76s.35-.76.78-.76.77.34.77.76-.35.76-.77.76"/>
        <path class="cls-1" d="M15.72,5.72c-.48,0-.86-.38-.86-.85s.39-.85.86-.85.86.38.86.85-.39.85-.86.85"/>
        <path class="cls-1" d="M27.5,37.63c-.48,0-.86-.38-.86-.85s.39-.85.86-.85.86.38.86.85-.39.85-.86.85"/>
        <path class="cls-1" d="M26.77,35.55c-.43,0-.78-.34-.78-.76s.35-.77.78-.77.78.34.78.77-.35.76-.78.76"/>
        <path class="cls-1" d="M26.03,33.47c-.38,0-.69-.3-.69-.68s.31-.68.69-.68.69.3.69.68-.31.68-.69.68"/>
        <path class="cls-1" d="M25.29,31.39c-.33,0-.6-.27-.6-.59s.27-.59.6-.59.6.27.6.59-.27.59-.6.59"/>
        <path class="cls-1" d="M24.56,29.31c-.29,0-.52-.23-.52-.51s.23-.51.52-.51.52.23.52.51-.23.51-.52.51"/>
        <path class="cls-1" d="M18.66,13.35c-.29,0-.52-.23-.52-.51s.23-.51.52-.51.52.23.52.51-.23.51-.52.51"/>
        <path class="cls-1" d="M17.93,11.44c-.33,0-.6-.27-.6-.59s.27-.59.6-.59.6.27.6.59-.27.59-.6.59"/>
        <path class="cls-1" d="M17.19,9.53c-.38,0-.69-.3-.69-.68s.31-.68.69-.68.69.3.69.68-.31.68-.69.68"/>
        <path class="cls-1" d="M16.45,7.62c-.43,0-.78-.34-.78-.76s.35-.76.78-.76.77.34.77.76-.35.76-.77.76"/>
        <path class="cls-1" d="M15.72,5.72c-.48,0-.86-.38-.86-.85s.39-.85.86-.85.86.38.86.85-.39.85-.86.85"/>
        <path class="cls-1" d="M32.69,34.68c-.48,0-.86-.38-.86-.85s.39-.85.86-.85.86.38.86.85-.39.85-.86.85"/>
        <path class="cls-1" d="M31.3,32.97c-.43,0-.78-.34-.78-.76s.35-.76.78-.76.78.34.78.76-.35.76-.78.76"/>
        <path class="cls-1" d="M29.92,31.26c-.38,0-.69-.3-.69-.68s.31-.68.69-.68.69.3.69.68-.31.68-.69.68"/>
        <path class="cls-1" d="M28.53,29.55c-.33,0-.6-.27-.6-.59s.27-.59.6-.59.6.27.6.59-.27.59-.6.59"/>
        <path class="cls-1" d="M27.15,27.84c-.29,0-.52-.23-.52-.51s.23-.51.52-.51.52.23.52.51-.23.51-.52.51"/>
        <path class="cls-1" d="M16.07,14.82c-.29,0-.52-.23-.52-.51s.23-.51.52-.51.52.23.52.51-.23.51-.52.51"/>
        <path class="cls-1" d="M14.69,13.28c-.33,0-.6-.27-.6-.59s.27-.59.6-.59.6.27.6.59-.27.59-.6.59"/>
        <path class="cls-1" d="M13.3,11.74c-.38,0-.69-.3-.69-.68s.31-.68.69-.68.69.3.69.68-.31.68-.69.68"/>
        <path class="cls-1" d="M11.92,10.2c-.43,0-.78-.34-.78-.76s.35-.76.78-.76.77.34.77.76-.35.76-.77.76"/>
        <path class="cls-1" d="M10.53,8.66c-.48,0-.86-.38-.86-.85s.39-.85.86-.85.86.38.86.85-.39.85-.86.85"/>
        <path class="cls-1" d="M32.69,34.68c-.48,0-.86-.38-.86-.85s.39-.85.86-.85.86.38.86.85-.39.85-.86.85"/>
        <path class="cls-1" d="M31.3,32.97c-.43,0-.78-.34-.78-.76s.35-.76.78-.76.78.34.78.76-.35.76-.78.76"/>
        <path class="cls-1" d="M29.92,31.26c-.38,0-.69-.3-.69-.68s.31-.68.69-.68.69.3.69.68-.31.68-.69.68"/>
        <path class="cls-1" d="M28.53,29.55c-.33,0-.6-.27-.6-.59s.27-.59.6-.59.6.27.6.59-.27.59-.6.59"/>
        <path class="cls-1" d="M27.15,27.84c-.29,0-.52-.23-.52-.51s.23-.51.52-.51.52.23.52.51-.23.51-.52.51"/>
        <path class="cls-1" d="M16.07,14.82c-.29,0-.52-.23-.52-.51s.23-.51.52-.51.52.23.52.51-.23.51-.52.51"/>
        <path class="cls-1" d="M14.69,13.28c-.33,0-.6-.27-.6-.59s.27-.59.6-.59.6.27.6.59-.27.59-.6.59"/>
        <path class="cls-1" d="M13.3,11.74c-.38,0-.69-.3-.69-.68s.31-.68.69-.68.69.3.69.68-.31.68-.69.68"/>
        <path class="cls-1" d="M11.92,10.2c-.43,0-.78-.34-.78-.76s.35-.76.78-.76.77.34.77.76-.35.76-.77.76"/>
        <path class="cls-1" d="M10.53,8.66c-.48,0-.86-.38-.86-.85s.39-.85.86-.85.86.38.86.85-.39.85-.86.85"/>
        <path class="cls-1" d="M36.53,30.17c-.48,0-.86-.38-.86-.85s.39-.85.86-.85.86.38.86.85-.39.85-.86.85"/>
        <path class="cls-1" d="M34.67,29.02c-.43,0-.78-.34-.78-.76s.35-.76.78-.76.77.34.77.76-.35.76-.77.76"/>
        <path class="cls-1" d="M32.8,27.87c-.38,0-.69-.3-.69-.68s.31-.68.69-.68.69.3.69.68-.31.68-.69.68"/>
        <path class="cls-1" d="M30.94,26.73c-.33,0-.6-.27-.6-.59s.27-.59.6-.59.6.27.6.59-.27.59-.6.59"/>
        <path class="cls-1" d="M29.07,25.58c-.29,0-.52-.23-.52-.51s.23-.51.52-.51.52.23.52.51-.23.51-.52.51"/>
        <path class="cls-1" d="M14.15,17.08c-.29,0-.52-.23-.52-.51s.23-.51.52-.51.52.23.52.51-.23.51-.52.51"/>
        <path class="cls-1" d="M12.28,16.11c-.33,0-.6-.27-.6-.59s.27-.59.6-.59.6.27.6.59-.27.59-.6.59"/>
        <path class="cls-1" d="M10.42,15.13c-.38,0-.69-.3-.69-.68s.31-.68.69-.68.69.3.69.68-.31.68-.69.68"/>
        <path class="cls-1" d="M8.55,14.16c-.43,0-.78-.34-.78-.76s.35-.76.78-.76.77.34.77.76-.35.76-.77.76"/>
        <path class="cls-1" d="M6.69,13.18c-.48,0-.86-.38-.86-.85s.39-.85.86-.85.86.38.86.85-.39.85-.86.85"/>
        <path class="cls-1" d="M36.53,30.17c-.48,0-.86-.38-.86-.85s.39-.85.86-.85.86.38.86.85-.39.85-.86.85"/>
        <path class="cls-1" d="M34.67,29.02c-.43,0-.78-.34-.78-.76s.35-.76.78-.76.77.34.77.76-.35.76-.77.76"/>
        <path class="cls-1" d="M32.8,27.87c-.38,0-.69-.3-.69-.68s.31-.68.69-.68.69.3.69.68-.31.68-.69.68"/>
        <path class="cls-1" d="M30.94,26.73c-.33,0-.6-.27-.6-.59s.27-.59.6-.59.6.27.6.59-.27.59-.6.59"/>
        <path class="cls-1" d="M29.07,25.58c-.29,0-.52-.23-.52-.51s.23-.51.52-.51.52.23.52.51-.23.51-.52.51"/>
        <path class="cls-1" d="M14.15,17.08c-.29,0-.52-.23-.52-.51s.23-.51.52-.51.52.23.52.51-.23.51-.52.51"/>
        <path class="cls-1" d="M12.28,16.11c-.33,0-.6-.27-.6-.59s.27-.59.6-.59.6.27.6.59-.27.59-.6.59"/>
        <path class="cls-1" d="M10.42,15.13c-.38,0-.69-.3-.69-.68s.31-.68.69-.68.69.3.69.68-.31.68-.69.68"/>
        <path class="cls-1" d="M8.55,14.16c-.43,0-.78-.34-.78-.76s.35-.76.78-.76.77.34.77.76-.35.76-.77.76"/>
        <path class="cls-1" d="M6.69,13.18c-.48,0-.86-.38-.86-.85s.39-.85.86-.85.86.38.86.85-.39.85-.86.85"/>
        <path class="cls-1" d="M38.58,24.62c-.48,0-.86-.38-.86-.85s.39-.85.86-.85.86.38.86.85-.39.85-.86.85"/>
        <path class="cls-1" d="M36.46,24.17c-.43,0-.78-.34-.78-.76s.35-.76.78-.76.78.34.78.76-.35.76-.78.76"/>
        <path class="cls-1" d="M34.34,23.72c-.38,0-.69-.3-.69-.68s.31-.68.69-.68.69.3.69.68-.31.68-.69.68"/>
        <path class="cls-1" d="M32.22,23.26c-.33,0-.6-.27-.6-.59s.27-.59.6-.59.6.27.6.59-.27.59-.6.59"/>
        <path class="cls-1" d="M30.1,22.81c-.29,0-.52-.23-.52-.51s.23-.51.52-.51.52.23.52.51-.23.51-.52.51"/>
        <path class="cls-1" d="M13.13,19.85c-.29,0-.52-.23-.52-.51s.23-.51.52-.51.52.23.52.51-.23.51-.52.51"/>
        <path class="cls-1" d="M11,19.57c-.33,0-.6-.27-.6-.59s.27-.59.6-.59.6.27.6.59-.27.59-.6.59"/>
        <path class="cls-1" d="M8.88,19.29c-.38,0-.69-.3-.69-.68s.31-.68.69-.68.69.3.69.68-.31.68-.69.68"/>
        <path class="cls-1" d="M6.76,19.01c-.43,0-.78-.34-.78-.76s.35-.76.78-.76.77.34.77.76-.35.76-.77.76"/>
        <path class="cls-1" d="M4.64,18.73c-.48,0-.86-.38-.86-.85s.39-.85.86-.85.86.38.86.85-.39.85-.86.85"/>
        <path class="cls-1" d="M38.58,24.62c-.48,0-.86-.38-.86-.85s.39-.85.86-.85.86.38.86.85-.39.85-.86.85"/>
        <path class="cls-1" d="M36.46,24.17c-.43,0-.78-.34-.78-.76s.35-.76.78-.76.78.34.78.76-.35.76-.78.76"/>
        <path class="cls-1" d="M34.34,23.72c-.38,0-.69-.3-.69-.68s.31-.68.69-.68.69.3.69.68-.31.68-.69.68"/>
        <path class="cls-1" d="M32.22,23.26c-.33,0-.6-.27-.6-.59s.27-.59.6-.59.6.27.6.59-.27.59-.6.59"/>
        <path class="cls-1" d="M30.1,22.81c-.29,0-.52-.23-.52-.51s.23-.51.52-.51.52.23.52.51-.23.51-.52.51"/>
        <path class="cls-1" d="M13.13,19.85c-.29,0-.52-.23-.52-.51s.23-.51.52-.51.52.23.52.51-.23.51-.52.51"/>
        <path class="cls-1" d="M11,19.57c-.33,0-.6-.27-.6-.59s.27-.59.6-.59.6.27.6.59-.27.59-.6.59"/>
        <path class="cls-1" d="M8.88,19.29c-.38,0-.69-.3-.69-.68s.31-.68.69-.68.69.3.69.68-.31.68-.69.68"/>
        <path class="cls-1" d="M6.76,19.01c-.43,0-.78-.34-.78-.76s.35-.76.78-.76.77.34.77.76-.35.76-.77.76"/>
        <path class="cls-1" d="M4.64,18.73c-.48,0-.86-.38-.86-.85s.39-.85.86-.85.86.38.86.85-.39.85-.86.85"/>
        <path class="cls-1" d="M38.58,18.73c-.48,0-.86-.38-.86-.85s.39-.85.86-.85.86.38.86.85-.39.85-.86.85"/>
        <path class="cls-1" d="M36.46,19.01c-.43,0-.78-.34-.78-.76s.35-.76.78-.76.78.34.78.76-.35.76-.78.76"/>
        <path class="cls-1" d="M34.34,19.29c-.38,0-.69-.3-.69-.68s.31-.68.69-.68.69.3.69.68-.31.68-.69.68"/>
        <path class="cls-1" d="M32.22,19.58c-.33,0-.6-.27-.6-.59s.27-.59.6-.59.6.27.6.59-.27.59-.6.59"/>
        <path class="cls-1" d="M30.1,19.86c-.29,0-.52-.23-.52-.51s.23-.51.52-.51.52.23.52.51-.23.51-.52.51"/>
        <path class="cls-1" d="M13.13,22.8c-.29,0-.52-.23-.52-.51s.23-.51.52-.51.52.23.52.51-.23.51-.52.51"/>
        <path class="cls-1" d="M11,23.26c-.33,0-.6-.27-.6-.59s.27-.59.6-.59.6.27.6.59-.27.59-.6.59"/>
        <path class="cls-1" d="M8.88,23.71c-.38,0-.69-.3-.69-.68s.31-.68.69-.68.69.3.69.68-.31.68-.69.68"/>
        <path class="cls-1" d="M6.76,24.17c-.43,0-.78-.34-.78-.76s.35-.76.78-.76.77.34.77.76-.35.76-.77.76"/>
        <path class="cls-1" d="M4.64,24.62c-.48,0-.86-.38-.86-.85s.39-.85.86-.85.86.38.86.85-.39.85-.86.85"/>
        <path class="cls-1" d="M38.58,18.73c-.48,0-.86-.38-.86-.85s.39-.85.86-.85.86.38.86.85-.39.85-.86.85"/>
        <path class="cls-1" d="M36.46,19.01c-.43,0-.78-.34-.78-.76s.35-.76.78-.76.78.34.78.76-.35.76-.78.76"/>
        <path class="cls-1" d="M34.34,19.29c-.38,0-.69-.3-.69-.68s.31-.68.69-.68.69.3.69.68-.31.68-.69.68"/>
        <path class="cls-1" d="M32.22,19.58c-.33,0-.6-.27-.6-.59s.27-.59.6-.59.6.27.6.59-.27.59-.6.59"/>
        <path class="cls-1" d="M30.1,19.86c-.29,0-.52-.23-.52-.51s.23-.51.52-.51.52.23.52.51-.23.51-.52.51"/>
        <path class="cls-1" d="M13.13,22.8c-.29,0-.52-.23-.52-.51s.23-.51.52-.51.52.23.52.51-.23.51-.52.51"/>
        <path class="cls-1" d="M11,23.26c-.33,0-.6-.27-.6-.59s.27-.59.6-.59.6.27.6.59-.27.59-.6.59"/>
        <path class="cls-1" d="M8.88,23.71c-.38,0-.69-.3-.69-.68s.31-.68.69-.68.69.3.69.68-.31.68-.69.68"/>
        <path class="cls-1" d="M6.76,24.17c-.43,0-.78-.34-.78-.76s.35-.76.78-.76.77.34.77.76-.35.76-.77.76"/>
        <path class="cls-1" d="M4.64,24.62c-.48,0-.86-.38-.86-.85s.39-.85.86-.85.86.38.86.85-.39.85-.86.85"/>
        <path class="cls-1" d="M36.53,13.18c-.48,0-.86-.38-.86-.85s.39-.85.86-.85.86.38.86.85-.39.85-.86.85"/>
        <path class="cls-1" d="M34.67,14.16c-.43,0-.78-.34-.78-.76s.35-.76.78-.76.77.34.77.76-.35.76-.77.76"/>
        <path class="cls-1" d="M32.8,15.14c-.38,0-.69-.3-.69-.68s.31-.68.69-.68.69.3.69.68-.31.68-.69.68"/>
        <path class="cls-1" d="M30.94,16.11c-.33,0-.6-.27-.6-.59s.27-.59.6-.59.6.27.6.59-.27.59-.6.59"/>
        <path class="cls-1" d="M29.07,17.09c-.29,0-.52-.23-.52-.51s.23-.51.52-.51.52.23.52.51-.23.51-.52.51"/>
        <path class="cls-1" d="M14.15,25.57c-.29,0-.52-.23-.52-.51s.23-.51.52-.51.52.23.52.51-.23.51-.52.51"/>
        <path class="cls-1" d="M12.28,26.72c-.33,0-.6-.27-.6-.59s.27-.59.6-.59.6.27.6.59-.27.59-.6.59"/>
        <path class="cls-1" d="M10.42,27.87c-.38,0-.69-.3-.69-.68s.31-.68.69-.68.69.3.69.68-.31.68-.69.68"/>
        <path class="cls-1" d="M8.55,29.02c-.43,0-.78-.34-.78-.76s.35-.76.78-.76.77.34.77.76-.35.76-.77.76"/>
        <path class="cls-1" d="M6.69,30.17c-.48,0-.86-.38-.86-.85s.39-.85.86-.85.86.38.86.85-.39.85-.86.85"/>
        <path class="cls-1" d="M36.53,13.18c-.48,0-.86-.38-.86-.85s.39-.85.86-.85.86.38.86.85-.39.85-.86.85"/>
        <path class="cls-1" d="M34.67,14.16c-.43,0-.78-.34-.78-.76s.35-.76.78-.76.77.34.77.76-.35.76-.77.76"/>
        <path class="cls-1" d="M32.8,15.14c-.38,0-.69-.3-.69-.68s.31-.68.69-.68.69.3.69.68-.31.68-.69.68"/>
        <path class="cls-1" d="M30.94,16.11c-.33,0-.6-.27-.6-.59s.27-.59.6-.59.6.27.6.59-.27.59-.6.59"/>
        <path class="cls-1" d="M29.07,17.09c-.29,0-.52-.23-.52-.51s.23-.51.52-.51.52.23.52.51-.23.51-.52.51"/>
        <path class="cls-1" d="M14.15,25.57c-.29,0-.52-.23-.52-.51s.23-.51.52-.51.52.23.52.51-.23.51-.52.51"/>
        <path class="cls-1" d="M12.28,26.72c-.33,0-.6-.27-.6-.59s.27-.59.6-.59.6.27.6.59-.27.59-.6.59"/>
        <path class="cls-1" d="M10.42,27.87c-.38,0-.69-.3-.69-.68s.31-.68.69-.68.69.3.69.68-.31.68-.69.68"/>
        <path class="cls-1" d="M8.55,29.02c-.43,0-.78-.34-.78-.76s.35-.76.78-.76.77.34.77.76-.35.76-.77.76"/>
        <path class="cls-1" d="M6.69,30.17c-.48,0-.86-.38-.86-.85s.39-.85.86-.85.86.38.86.85-.39.85-.86.85"/>
        <path class="cls-1" d="M32.69,8.66c-.48,0-.86-.38-.86-.85s.39-.85.86-.85.86.38.86.85-.39.85-.86.85"/>
        <path class="cls-1" d="M31.3,10.21c-.43,0-.78-.34-.78-.76s.35-.76.78-.76.78.34.78.76-.35.76-.78.76"/>
        <path class="cls-1" d="M29.92,11.75c-.38,0-.69-.3-.69-.68s.31-.68.69-.68.69.3.69.68-.31.68-.69.68"/>
        <path class="cls-1" d="M28.53,13.29c-.33,0-.6-.27-.6-.59s.27-.59.6-.59.6.27.6.59-.27.59-.6.59"/>
        <path class="cls-1" d="M27.15,14.83c-.29,0-.52-.23-.52-.51s.23-.51.52-.51.52.23.52.51-.23.51-.52.51"/>
        <path class="cls-1" d="M16.07,27.83c-.29,0-.52-.23-.52-.51s.23-.51.52-.51.52.23.52.51-.23.51-.52.51"/>
        <path class="cls-1" d="M14.69,29.55c-.33,0-.6-.27-.6-.59s.27-.59.6-.59.6.27.6.59-.27.59-.6.59"/>
        <path class="cls-1" d="M13.3,31.26c-.38,0-.69-.3-.69-.68s.31-.68.69-.68.69.3.69.68-.31.68-.69.68"/>
        <path class="cls-1" d="M11.92,32.97c-.43,0-.78-.34-.78-.76s.35-.76.78-.76.77.34.77.76-.35.76-.77.76"/>
        <path class="cls-1" d="M10.53,34.68c-.48,0-.86-.38-.86-.85s.39-.85.86-.85.86.38.86.85-.39.85-.86.85"/>
        <path class="cls-1" d="M32.69,8.66c-.48,0-.86-.38-.86-.85s.39-.85.86-.85.86.38.86.85-.39.85-.86.85"/>
        <path class="cls-1" d="M31.3,10.21c-.43,0-.78-.34-.78-.76s.35-.76.78-.76.78.34.78.76-.35.76-.78.76"/>
        <path class="cls-1" d="M29.92,11.75c-.38,0-.69-.3-.69-.68s.31-.68.69-.68.69.3.69.68-.31.68-.69.68"/>
        <path class="cls-1" d="M28.53,13.29c-.33,0-.6-.27-.6-.59s.27-.59.6-.59.6.27.6.59-.27.59-.6.59"/>
        <path class="cls-1" d="M27.15,14.83c-.29,0-.52-.23-.52-.51s.23-.51.52-.51.52.23.52.51-.23.51-.52.51"/>
        <path class="cls-1" d="M16.07,27.83c-.29,0-.52-.23-.52-.51s.23-.51.52-.51.52.23.52.51-.23.51-.52.51"/>
        <path class="cls-1" d="M14.69,29.55c-.33,0-.6-.27-.6-.59s.27-.59.6-.59.6.27.6.59-.27.59-.6.59"/>
        <path class="cls-1" d="M13.3,31.26c-.38,0-.69-.3-.69-.68s.31-.68.69-.68.69.3.69.68-.31.68-.69.68"/>
        <path class="cls-1" d="M11.92,32.97c-.43,0-.78-.34-.78-.76s.35-.76.78-.76.77.34.77.76-.35.76-.77.76"/>
        <path class="cls-1" d="M10.53,34.68c-.48,0-.86-.38-.86-.85s.39-.85.86-.85.86.38.86.85-.39.85-.86.85"/>
        <path class="cls-1" d="M27.5,5.72c-.48,0-.86-.38-.86-.85s.39-.85.86-.85.86.38.86.85-.39.85-.86.85"/>
        <path class="cls-1" d="M26.77,7.63c-.43,0-.78-.34-.78-.76s.35-.76.78-.76.78.34.78.76-.35.76-.78.76"/>
        <path class="cls-1" d="M26.03,9.54c-.38,0-.69-.3-.69-.68s.31-.68.69-.68.69.3.69.68-.31.68-.69.68"/>
        <path class="cls-1" d="M25.29,11.45c-.33,0-.6-.27-.6-.59s.27-.59.6-.59.6.27.6.59-.27.59-.6.59"/>
        <path class="cls-1" d="M24.56,13.36c-.29,0-.52-.23-.52-.51s.23-.51.52-.51.52.23.52.51-.23.51-.52.51"/>
        <path class="cls-1" d="M18.66,29.31c-.29,0-.52-.23-.52-.51s.23-.51.52-.51.52.23.52.51-.23.51-.52.51"/>
        <path class="cls-1" d="M17.93,31.39c-.33,0-.6-.27-.6-.59s.27-.59.6-.59.6.27.6.59-.27.59-.6.59"/>
        <path class="cls-1" d="M17.19,33.47c-.38,0-.69-.3-.69-.68s.31-.68.69-.68.69.3.69.68-.31.68-.69.68"/>
        <path class="cls-1" d="M16.45,35.55c-.43,0-.78-.34-.78-.76s.35-.77.78-.77.77.34.77.77-.35.76-.77.76"/>
        <path class="cls-1" d="M15.72,37.63c-.48,0-.86-.38-.86-.85s.39-.85.86-.85.86.38.86.85-.39.85-.86.85"/>
      </g>
      <path class="cls-2" d="M98.88,30.1l1.83-1.83v-5.49h-1.83v7.32ZM88.81,30.1h1.83v-1.83h5.49v1.83h1.83v-6.41l-.92-.91h-8.24v7.32ZM96.14,26.44h-5.49v-1.83h5.49v1.83ZM79.66,30.1h8.24v-1.83h-7.32v-3.66h5.49v1.83h1.83v-2.75l-.92-.91h-8.24v6.41l.92.91ZM76,30.1h1.83v-7.32h-1.83v7.32ZM65.93,30.1h8.24l.91-.91v-5.49l-.91-.91h-8.24v1.83h7.32v3.66h-5.49v-2.75h-1.83v4.58ZM56.78,30.1h8.24v-1.83h-7.32v-.91h6.41v-1.83h-6.41v-.92h7.32v-1.83h-9.15v6.41l.92.91ZM45.8,30.1h1.83v-5.49h1.83v5.49h1.83v-5.49h1.83v5.49h1.83v-6.41l-.92-.91h-8.24v7.32Z"/>
      <path class="cls-2" d="M86.98,20.27h8.24v-1.83h-7.32v-.91h6.41v-1.83h-6.41v-.92h7.32v-1.83h-9.15v6.41l.92.91ZM76,20.27h1.83v-2.75h5.49v2.75h1.83v-3.66l-.91-.92h-1.46l2.75-2.75h-2.58l-2.75,2.75h-2.37v-2.75h-1.83v7.32ZM66.85,20.27h7.32l.91-.91v-5.49l-.91-.91h-7.32l-.92.91v5.49l.92.91ZM73.25,18.44h-5.49v-3.66h5.49v3.66ZM55.86,20.27h1.83v-1.83h6.41l.92-.91v-3.66l-.92-.91h-8.24v7.32ZM63.19,16.61h-5.49v-1.83h5.49v1.83ZM45.8,20.27h8.24l.92-.91v-3.66h-7.32v-.92h7.32v-1.83h-8.24l-.91.91v3.66h7.32v.91h-7.32v1.83Z"/>
      <rect class="cls-2" x="98.87" y="28.3" width="9.22" height="1.8"/>
    </g>
  </g>
</svg>